<!-- icon666.com - MILLIONS vector ICONS FREE --><svg id="Flat" viewBox="0 0 64 64" xmlns="http://www.w3.org/2000/svg"><g><path d="m40.803 17.791h8.419v2h-8.419z" fill="#547204" transform="matrix(.781 -.625 .625 .781 -1.871 32.251)"></path></g><g><path d="m37.279 13.805h2v7.526h-2z" fill="#547204" transform="matrix(.894 -.447 .447 .894 -3.816 18.972)"></path></g><path d="m14.81 35.34c1.65-.22 3.39-.34 5.19-.34.42 0 .84.01 1.26.02 9.9.31 17.74 4.21 17.74 8.98 0 0 0 .17-.02.47-.53 4.75-8.82 8.53-18.98 8.53-10.25 0-18.62-3.85-18.99-8.67-.01-.21-.01-.33-.01-.33 0-2.82 2.74-5.34 7.04-6.98 1.52-.6 3.25-1.08 5.12-1.41.54-.11 1.09-.19 1.65-.27z" fill="#f1e4a0"></path><path d="m20 42c.46 0 .88.11 1.21.31.41.23.69.58.77.97.01.07.02.14.02.22 0 .66-.57 1.22-1.35 1.41-.2.06-.42.09-.65.09s-.45-.03-.65-.09c-.78-.19-1.35-.75-1.35-1.41 0-.08.01-.15.02-.22.08-.39.36-.74.77-.97.33-.2.75-.31 1.21-.31z" fill="#f1e4a0"></path><path d="m22.32 43.16-.34.12c-.08-.39-.36-.74-.77-.97l2.48-3.47c.23.06.47.05.68-.06 2.2-1.12 4.34.79 5.22 1.73z" fill="#ce1618"></path><path d="m33.9 43.67c.07.22.07.44 0 .66-.29.86-1.27 3.13-3.38 2.8-.09-.01-.18-.02-.26 0l-7.94-3.97 7.27-2.65c.01.02.03.04.05.06.22.25.55.35.88.3 2.11-.33 3.09 1.94 3.38 2.8z" fill="#df342d"></path><path d="m22.32 43.16 7.94 3.97c-.24.02-.46.11-.62.3-.84.92-3.02 2.93-5.27 1.79-.21-.11-.45-.12-.68-.06l-3.04-4.25c.78-.19 1.35-.75 1.35-1.41 0-.08-.01-.15-.02-.22z" fill="#ce1618"></path><path d="m20.65 44.91 3.04 4.25c-.06.01-.11.03-.16.05-.71.29-2.12.79-3.53.79s-2.82-.5-3.53-.79c-.05-.02-.1-.04-.16-.05l3.04-4.25c.2.06.42.09.65.09s.45-.03.65-.09z" fill="#df342d"></path><path d="m17.79 43.19.23.09c-.01.07-.02.14-.02.22 0 .66.57 1.22 1.35 1.41l-3.04 4.25c-.23-.06-.47-.05-.68.06-2.25 1.14-4.43-.87-5.27-1.79-.05-.06-.11-.11-.17-.15l7.59-4.09z" fill="#ce1618"></path><path d="m17.78 43.19-7.59 4.09c-.2-.14-.46-.19-.71-.15-2.11.33-3.09-1.94-3.38-2.8-.07-.22-.07-.44 0-.66.29-.86 1.27-3.13 3.38-2.8.33.05.66-.05.88-.3.02-.02.04-.04.05-.06z" fill="#df342d"></path><path d="m18.79 42.31c-.41.23-.69.58-.77.97l-.23-.09h-.01l-7.37-2.68c.88-.94 3.02-2.85 5.22-1.73.21.11.45.12.68.06z" fill="#ce1618"></path><path d="m23.53 38.79c.05.02.1.04.16.05l-2.48 3.47c-.33-.2-.75-.31-1.21-.31s-.88.11-1.21.31l-2.48-3.47c.06-.01.11-.03.16-.05.71-.29 2.12-.79 3.53-.79s2.82.5 3.53.79z" fill="#df342d"></path><path d="m23.6 27.29-.69-.95-1.58-2.19-1.67-2.32-3.81-5.27-.68-.94c-.68-.94-2-1.11-2.9-.38-3.26 2.7-9.54 9.83-4.23 21.78 1.52-.6 3.25-1.08 5.12-1.41.54-.11 1.09-.19 1.65-.27 1.65-.22 3.39-.34 5.19-.34.42 0 .84.01 1.26.02.41-1.31 1.41-3.66 3.7-5.85z" fill="#ff9700"></path><path d="m20 35c-1.8 0-3.54.12-5.19.34l8.79-8.05 1.36 1.88c-2.29 2.19-3.29 4.54-3.7 5.85-.42-.01-.84-.02-1.26-.02z" fill="#df342d"></path><path d="m14.81 35.34c-.56.08-1.11.16-1.65.27-3.92-2.08-2.16-5.61-2.16-5.61l11.91-3.66.69.95z" fill="#ce1618"></path><path d="m19.66 21.83 1.67 2.32-9.33.85c-2-2 1-4 1-4z" fill="#ce1618"></path><path d="m15.17 15.62.68.94c-1.41.8-3.53 2.39-2.85 4.44 0 0-3 2-1 4 0 0-3 3-1 5 0 0-1.76 3.53 2.16 5.61-1.87.33-3.6.81-5.12 1.41-5.31-11.95.97-19.08 4.23-21.78.9-.73 2.22-.56 2.9.38z" fill="#ff9700"></path><path d="m19.66 21.83-6.66-.83c-.68-2.05 1.44-3.64 2.85-4.44z" fill="#df342d"></path><path d="m21.33 24.15 1.58 2.19-11.91 3.66c-2-2 1-5 1-5z" fill="#df342d"></path><g fill="#547204"><path d="m26.32 1.18c-.72-.08-1.35.21-1.75.7-.45.52-.64 1.27-.39 2 .43 1.29.82 2.8.82 4.12 0 3 3.45 11.83 11 9 .59-.22 1.12-.5 1.58-.83.01 0 .02 0 .02-.01 5.3-3.74 1.74-13.55-11.28-14.98z"></path><path d="m61 5c-12-3-15 13-15 13s20-1 15-13z"></path></g><path d="m26.32 1.18c13.02 1.43 16.58 11.24 11.28 14.98-3.89-7.96-10.13-12.51-13.03-14.28.4-.49 1.03-.78 1.75-.7z" fill="#547204"></path><path d="m37.6 16.16c0 .01-.01.01-.02.01-.46.33-.99.61-1.58.83-7.55 2.83-11-6-11-9 0-1.32-.39-2.83-.82-4.12-.25-.73-.06-1.48.39-2 2.9 1.77 9.14 6.32 13.03 14.28z" fill="#647f0e"></path><path d="m35.207 4.17c1.368 2.994 1.588 6.135.788 9.092.565.911 1.105 1.876 1.605 2.898 3.773-2.662 3.03-8.389-2.393-11.99z" fill="#486900"></path><path d="m35.995 13.262c-.398 1.471-1.051 2.894-1.944 4.23.617-.078 1.266-.236 1.949-.492.59-.22 1.12-.5 1.58-.83.01 0 .02 0 .02-.01-.5-1.023-1.039-1.987-1.605-2.898z" fill="#547204"></path><path d="m61 5c5 12-15 13-15 13 6-7 15-13 15-13z" fill="#647f0e"></path><path d="m46 18s3-16 15-13c0 0-9 6-15 13z" fill="#547204"></path><path d="m49.686 14.132c-1.282 1.23-2.539 2.53-3.686 3.868 0 0 15.807-.798 15.788-9.416-2.488 3.735-7.532 5.749-12.102 5.548z" fill="#547204"></path><path d="m46 18c1.147-1.338 2.404-2.638 3.686-3.868-.823-.036-1.629-.138-2.403-.321-.933 2.33-1.283 4.189-1.283 4.189z" fill="#486900"></path><path d="m40.61 19h1.01c.81 0 1.41.71 1.32 1.45-.01.1-.04.21-.08.31-.4 1.03-.53 2.16-.5 3.22.02 1.61.36 3.04.54 3.67-.8.17-1.53.24-2.18.24-.69 0-1.3-.07-1.81-.18-.17-.59-.54-2.04-.56-3.68-.03-1.43.19-3 1.03-4.26.04-.08.09-.15.15-.23.25-.34.65-.54 1.08-.54z" fill="#9e7059"></path><path d="m42.86 20.76c-.4 1.03-.53 2.16-.5 3.22.02 1.61.36 3.04.54 3.67-.8.17-1.53.24-2.18.24-.5 0-.95-.04-1.36-.1.8-.27 1.33-1.11 1.2-1.99-.08-.55-.14-1.17-.15-1.82-.03-1.06.1-2.19.5-3.22.04-.1.07-.21.08-.31.07-.59-.29-1.16-.85-1.36.14-.06.31-.09.47-.09h1.01c.81 0 1.41.71 1.32 1.45-.01.1-.04.21-.08.31z" fill="#995b3f"></path><path d="m24.96 29.17c2.55-2.45 6.69-4.71 13.39-5.14.02 1.64.39 3.09.56 3.68.51.11 1.12.18 1.81.18.65 0 1.38-.07 2.18-.24-.18-.63-.52-2.06-.54-3.67.16 0 .33.01.5.02 10.36.52 15.59 6.53 18.22 12.15 3.3 7.05 2.36 15.55-2.94 21.21-4.17 4.46-16.73 7.68-29.69 4.11l-.02-.05c9.37-4.05 10.43-14.6 10.55-16.95.02-.3.02-.47.02-.47 0-4.77-7.84-8.67-17.74-8.98.41-1.31 1.41-3.66 3.7-5.85z" fill="#ff7f00"></path><path d="m61.08 36.15c-1.883-4.023-5.111-8.236-10.588-10.501 6.618 8.189 6.894 20.375 1.508 29.351-3.14 5.496-9.366 7.287-16.251 7.806 10.136.961 19.014-1.835 22.391-5.446 5.3-5.66 6.24-14.16 2.94-21.21z" fill="#ff6700"></path><path d="m39 44s0 .17-.02.47c-.53 4.75-8.82 8.53-18.98 8.53-4.73 0-9.06-.82-12.39-2.18 2.77.75 5.98 1.18 9.39 1.18 10.16 0 18.45-3.78 18.98-8.53.02-.3.02-.47.02-.47 0-2.73-2.57-5.18-6.63-6.82 5.75 1.54 9.63 4.47 9.63 7.82z" fill="#edd262"></path><path d="m1.01 44.33c.37 4.82 8.74 8.67 18.99 8.67 10.16 0 18.45-3.78 18.98-8.53-.12 2.35-1.18 12.9-10.55 16.95-2.28.98-5.06 1.58-8.43 1.58-17.52 0-18.88-16.15-18.99-18.67z" fill="#ff9700"></path><path d="m32.746 50.662c-4.652 7.903-15.019 9.182-23.786 9.323 2.678 1.804 6.252 3.015 11.04 3.015 3.37 0 6.15-.6 8.43-1.58 9.37-4.05 10.43-14.6 10.55-16.95-.274 2.454-2.63 4.644-6.234 6.192z" fill="#ff7f00"></path><path d="m41.35 45s0 .17-.02.47c-.12 2.3-1.14 12.47-9.99 16.69-.96-.19-1.92-.42-2.89-.69l-.02-.05c9.37-4.05 10.43-14.6 10.55-16.95.02-.3.02-.47.02-.47 0-2.38-1.96-4.55-5.16-6.16 4.56 1.64 7.51 4.24 7.51 7.16z" fill="#ff6700"></path><path d="m32.645 30.126c.471-.315.735-.735.232-1.238-.514-.513-1.744-.794-2.46-.581-.868.258-1.731.79-2.422 1.402-.61.54-2.334 3.233-.535 2.888.821-.158 1.461-.718 2.159-1.165.481-.309 1.016-.552 1.559-.695.324-.087.998-.297 1.467-.611z" fill="#f9af0b"></path><g><g><path d="m30.393 45.19c.643 0 .645-1 0-1-.644 0-.645 1 0 1z" fill="#e26464"></path></g></g><g><g><path d="m10.342 43.414c.643 0 .645-1 0-1-.644 0-.645 1 0 1z" fill="#e26464"></path></g></g><g><g><path d="m20.071 40.368c.643 0 .645-1 0-1-.643 0-.644 1 0 1z" fill="#e26464"></path></g></g><g><g><path d="m14.318 47.728c.643 0 .645-1 0-1-.643 0-.644 1 0 1z" fill="#e26464"></path></g></g><g><g><path d="m12.372 44.091c.643 0 .645-1 0-1-.643 0-.644 1 0 1z" fill="#e26464"></path></g></g><g><g><path d="m24.047 46.544c.643 0 .645-1 0-1-.643 0-.644 1 0 1z" fill="#e26464"></path></g></g><g><g><path d="m13.303 33.684c.643 0 .645-1 0-1-.644 0-.645 1 0 1z" fill="#e26464"></path></g></g><g><g><path d="m16.518 30.893c.643 0 .645-1 0-1-.644 0-.645 1 0 1z" fill="#e26464"></path></g></g><g><g><path d="m13.387 27.508c.643 0 .645-1 0-1-.643 0-.644 1 0 1z" fill="#e26464"></path></g></g><g><g><path d="m14.657 23.363c.643 0 .645-1 0-1-.644 0-.645 1 0 1z" fill="#e26464"></path></g></g><g><g><path d="m15.756 20.063c.643 0 .645-1 0-1-.643 0-.644 1 0 1z" fill="#e26464"></path></g></g><path d="m45.929 26.628c-.205-.512-.786-.76-1.3-.557-4.38 1.752-6.957.171-7.08.092-.46-.302-1.076-.175-1.38.282-.306.459-.182 1.081.277 1.387.026.017.17.107.407.225-.5.775-.76 1.506-.8 1.625-.175.522.106 1.087.628 1.264.106.036.213.053.32.053.417 0 .806-.263.947-.679.099-.291.428-1.044.903-1.609.25.049.518.088.803.118.012 1.315.381 2.434.401 2.493.141.417.529.678.945.678.107 0 .216-.018.323-.054.522-.178.802-.747.623-1.27-.003-.011-.283-.875-.296-1.833.283-.025.582-.07.884-.12.438.62.465 1.255.466 1.277 0 .552.448 1 1 1s1-.448 1-1c0-.122-.028-.898-.454-1.784.273-.091.541-.173.825-.287.513-.206.763-.787.558-1.301z" fill="#ff6700"></path></svg>